<svg width="214" height="26" viewBox="0 0 214 26" fill="none" xmlns="http://www.w3.org/2000/svg">
<path d="M158.605 7.51758H160.133V18.443H158.605V13.3973H153.265V18.443H151.736V7.51758H153.265V12.0745H158.605V7.51758Z" fill="black"/>
<path d="M169.977 14.3454C169.977 14.9977 169.882 15.5864 169.693 16.1114C169.505 16.6364 169.239 17.0887 168.899 17.4683C168.558 17.8478 168.152 18.1388 167.677 18.3433C167.205 18.5479 166.689 18.6501 166.133 18.6501C165.577 18.6501 165.062 18.5479 164.589 18.3433C164.117 18.1388 163.71 17.8478 163.368 17.4683C163.027 17.0887 162.762 16.6387 162.573 16.1114C162.385 15.5864 162.289 14.9977 162.289 14.3454C162.289 13.6931 162.385 13.1181 162.573 12.5886C162.762 12.059 163.027 11.6044 163.368 11.2248C163.708 10.8453 164.114 10.5544 164.589 10.3498C165.062 10.1453 165.577 10.043 166.133 10.043C166.689 10.043 167.205 10.1453 167.677 10.3498C168.149 10.5544 168.556 10.8453 168.899 11.2248C169.242 11.6044 169.505 12.059 169.693 12.5886C169.882 13.1204 169.977 13.7045 169.977 14.3454ZM168.449 14.3454C168.449 13.4204 168.243 12.6886 167.827 12.1454C167.411 11.6044 166.849 11.334 166.133 11.334C165.418 11.334 164.855 11.6044 164.439 12.1454C164.024 12.6863 163.817 13.4204 163.817 14.3454C163.817 15.2705 164.024 16.0046 164.439 16.5455C164.855 17.0865 165.418 17.3569 166.133 17.3569C166.849 17.3569 167.411 17.0865 167.827 16.5455C168.243 16.0046 168.449 15.2705 168.449 14.3454Z" fill="black"/>
<path d="M175.063 10.0723C175.188 10.0723 175.333 10.0813 175.497 10.095C175.66 10.1109 175.819 10.1314 175.978 10.1586C176.135 10.1859 176.28 10.2109 176.411 10.2382C176.543 10.2655 176.641 10.2882 176.702 10.3086L176.45 11.586C176.334 11.5451 176.144 11.4951 175.876 11.436C175.608 11.3791 175.265 11.3496 174.845 11.3496C174.573 11.3496 174.302 11.3791 174.034 11.436C173.766 11.4928 173.591 11.5337 173.507 11.5542V18.4431H172.043V10.5928C172.391 10.4655 172.82 10.3473 173.335 10.2382C173.85 10.1268 174.427 10.0723 175.068 10.0723H175.063Z" fill="black"/>
<path d="M178.843 8.76265C178.58 8.76265 178.357 8.67628 178.173 8.50356C177.989 8.33083 177.898 8.09675 177.898 7.80125C177.898 7.5058 177.989 7.27397 178.173 7.09893C178.357 6.92621 178.58 6.83984 178.843 6.83984C179.107 6.83984 179.329 6.92621 179.513 7.09893C179.697 7.27168 179.788 7.5058 179.788 7.80125C179.788 8.09675 179.694 8.32858 179.513 8.50356C179.329 8.67628 179.107 8.76265 178.843 8.76265ZM179.583 18.4449H178.119V10.2468H179.583V18.4449Z" fill="black"/>
<path d="M187.538 11.3491C187.318 11.59 187.027 11.9332 186.664 12.3741C186.301 12.815 185.912 13.3037 185.499 13.8401C185.085 14.3765 184.67 14.9379 184.255 15.5265C183.839 16.1152 183.476 16.6766 183.16 17.213H187.665V18.4426H181.412V17.4653C181.664 17.0039 181.973 16.4925 182.341 15.9356C182.708 15.3788 183.094 14.8242 183.499 14.2719C183.903 13.7196 184.295 13.1991 184.679 12.7105C185.063 12.2219 185.397 11.8105 185.678 11.4718H181.63V10.2422H187.535V11.3468L187.538 11.3491Z" fill="black"/>
<path d="M196.438 14.3454C196.438 14.9977 196.343 15.5864 196.154 16.1114C195.966 16.6364 195.7 17.0887 195.359 17.4683C195.019 17.8478 194.612 18.1388 194.138 18.3433C193.666 18.5479 193.15 18.6501 192.594 18.6501C192.038 18.6501 191.522 18.5479 191.05 18.3433C190.578 18.1388 190.171 17.8478 189.829 17.4683C189.488 17.0887 189.222 16.6387 189.034 16.1114C188.845 15.5864 188.75 14.9977 188.75 14.3454C188.75 13.6931 188.845 13.1181 189.034 12.5886C189.222 12.059 189.488 11.6044 189.829 11.2248C190.169 10.8453 190.575 10.5544 191.05 10.3498C191.522 10.1453 192.038 10.043 192.594 10.043C193.15 10.043 193.666 10.1453 194.138 10.3498C194.61 10.5544 195.016 10.8453 195.359 11.2248C195.702 11.6044 195.966 12.059 196.154 12.5886C196.343 13.1204 196.438 13.7045 196.438 14.3454ZM194.91 14.3454C194.91 13.4204 194.703 12.6886 194.288 12.1454C193.872 11.6044 193.309 11.334 192.594 11.334C191.879 11.334 191.315 11.6044 190.9 12.1454C190.485 12.6863 190.278 13.4204 190.278 14.3454C190.278 15.2705 190.485 16.0046 190.9 16.5455C191.315 17.0865 191.879 17.3569 192.594 17.3569C193.309 17.3569 193.872 17.0865 194.288 16.5455C194.703 16.0046 194.91 15.2705 194.91 14.3454Z" fill="black"/>
<path d="M198.501 10.4814C198.837 10.3973 199.282 10.3086 199.84 10.2132C200.397 10.1177 201.037 10.0723 201.761 10.0723C202.413 10.0723 202.953 10.1655 203.382 10.3473C203.814 10.5314 204.156 10.7882 204.413 11.12C204.669 11.4519 204.852 11.8473 204.956 12.311C205.06 12.7747 205.113 13.2838 205.113 13.8406V18.4453H203.648V14.1566C203.648 13.652 203.614 13.2201 203.546 12.8633C203.478 12.5065 203.364 12.2178 203.208 11.9974C203.051 11.7769 202.84 11.6155 202.576 11.5155C202.313 11.4155 201.988 11.3655 201.6 11.3655C201.443 11.3655 201.28 11.37 201.112 11.3814C200.944 11.3928 200.783 11.4041 200.63 11.4201C200.478 11.436 200.342 11.4542 200.221 11.4746C200.101 11.4951 200.015 11.511 199.963 11.5223V18.4431H198.498V10.4814H198.501Z" fill="black"/>
<path d="M209.446 17.389C210.046 17.389 210.489 17.3095 210.777 17.1527C211.066 16.9959 211.211 16.7435 211.211 16.3958C211.211 16.0481 211.07 15.7549 210.787 15.5435C210.502 15.3344 210.035 15.098 209.386 14.8344C209.069 14.7093 208.768 14.5798 208.48 14.448C208.191 14.3162 207.941 14.1616 207.733 13.9821C207.521 13.8025 207.353 13.5888 207.229 13.3366C207.104 13.0843 207.04 12.7752 207.04 12.407C207.04 11.682 207.308 11.107 207.844 10.6797C208.38 10.2524 209.108 10.041 210.033 10.041C210.264 10.041 210.493 10.0546 210.725 10.0796C210.956 10.1069 211.172 10.1365 211.37 10.1751C211.57 10.2114 211.744 10.2524 211.897 10.2933C212.049 10.3364 212.167 10.3728 212.251 10.4046L211.983 11.666C211.826 11.582 211.579 11.4956 211.242 11.4069C210.907 11.3183 210.502 11.2728 210.03 11.2728C209.622 11.2728 209.263 11.3547 208.958 11.5183C208.654 11.682 208.502 11.9365 208.502 12.282C208.502 12.4615 208.536 12.6183 208.604 12.7548C208.672 12.8911 208.777 13.0138 208.92 13.1252C209.063 13.2366 209.238 13.3388 209.446 13.432C209.656 13.5275 209.908 13.6275 210.203 13.7321C210.591 13.8798 210.938 14.023 211.242 14.1661C211.547 14.3071 211.808 14.473 212.021 14.6639C212.237 14.8526 212.403 15.0821 212.516 15.3503C212.632 15.6185 212.689 15.9458 212.689 16.3367C212.689 17.0936 212.407 17.6663 211.847 18.055C211.286 18.4436 210.484 18.6391 209.444 18.6391C208.72 18.6391 208.152 18.5777 207.744 18.4573C207.335 18.3368 207.056 18.2436 206.908 18.1823L207.176 16.9208C207.344 16.9845 207.612 17.0777 207.98 17.2049C208.348 17.3322 208.836 17.3936 209.444 17.3936L209.446 17.389Z" fill="black"/>
<path d="M41.4814 7.5957H43.9449V18.4439H41.4814V13.8414H37.3444V18.4439H34.8809V7.5957H37.3444V11.7436H41.4814V7.5957Z" fill="black"/>
<path d="M49.742 12.9448C49.742 13.4766 49.8078 13.9607 49.9372 14.3857C50.069 14.8175 50.2574 15.188 50.5026 15.4949C50.7478 15.8017 51.0498 16.0403 51.404 16.2085C51.7605 16.3744 52.1669 16.4631 52.6279 16.4631C53.0888 16.4631 53.4839 16.3744 53.8448 16.2085C54.2059 16.0426 54.5101 15.8017 54.7554 15.4949C55.0006 15.188 55.189 14.8175 55.3207 14.3857C55.4501 13.9585 55.516 13.4743 55.516 12.9448C55.516 12.4152 55.4501 11.9242 55.3207 11.4879C55.189 11.056 55.0006 10.681 54.7554 10.3742C54.5101 10.0674 54.2059 9.82871 53.8448 9.66052C53.4839 9.49464 53.0774 9.40596 52.6279 9.40596C52.1783 9.40596 51.7582 9.49464 51.404 9.66736C51.0475 9.84009 50.7478 10.0833 50.5026 10.3901C50.2574 10.697 50.069 11.072 49.9372 11.5038C49.8056 11.9402 49.742 12.4197 49.742 12.9448ZM58.0454 12.9448C58.0454 13.8766 57.9071 14.6948 57.63 15.4017C57.3529 16.1086 56.9739 16.6972 56.4923 17.1767C56.0112 17.6495 55.4388 18.0086 54.7735 18.2541C54.1082 18.4927 53.3953 18.6132 52.6301 18.6132C51.8649 18.6132 51.186 18.4927 50.5276 18.2541C49.8691 18.0086 49.2924 17.6495 48.802 17.1767C48.3092 16.6972 47.9233 16.1086 47.6395 15.4017C47.3579 14.6948 47.2148 13.8766 47.2148 12.9448C47.2148 12.0129 47.3624 11.1901 47.6553 10.4833C47.9482 9.77643 48.3433 9.18098 48.8406 8.70367C49.3378 8.21955 49.9123 7.86047 50.5662 7.615C51.2201 7.37632 51.9081 7.25586 52.6301 7.25586C53.3522 7.25586 54.0742 7.37632 54.7326 7.615C55.3911 7.86047 55.968 8.21955 56.4581 8.70367C56.9488 9.18321 57.3369 9.77643 57.6183 10.4833C57.9023 11.1901 58.0433 12.0084 58.0433 12.9448H58.0454Z" fill="black"/>
<path d="M64.2032 16.5268C64.5486 16.5268 64.8348 16.4949 65.0596 16.4381C65.2844 16.3813 65.4659 16.3018 65.5999 16.204C65.736 16.104 65.8289 15.9858 65.8834 15.8494C65.9357 15.7131 65.9629 15.5585 65.9629 15.3903C65.9629 15.0358 65.7953 14.7403 65.4611 14.5062C65.1274 14.2676 64.5508 14.0176 63.7355 13.7402C63.3794 13.6152 63.0227 13.4698 62.6687 13.3084C62.3121 13.147 61.9939 12.9448 61.7104 12.6993C61.429 12.4493 61.1973 12.1538 61.02 11.8038C60.8428 11.4492 60.7542 11.022 60.7542 10.5242C60.7542 10.0265 60.8476 9.56737 61.0361 9.16503C61.2245 8.75822 61.4899 8.41501 61.8374 8.13545C62.1824 7.85363 62.6004 7.63541 63.0932 7.48545C63.586 7.33544 64.1397 7.25586 64.7574 7.25586C65.491 7.25586 66.1242 7.33314 66.6581 7.49C67.1915 7.6468 67.6298 7.82408 67.9769 8.01043L67.271 9.94239C66.9667 9.78553 66.6309 9.6446 66.2582 9.52643C65.8861 9.40596 65.4387 9.34462 64.9165 9.34462C64.3308 9.34462 63.9085 9.42869 63.6517 9.59008C63.3949 9.75143 63.2678 10.0014 63.2678 10.3356C63.2678 10.5379 63.3158 10.706 63.4087 10.8401C63.5016 10.9765 63.6357 11.1015 63.8081 11.2106C63.9811 11.3197 64.1808 11.4197 64.4055 11.5084C64.6303 11.597 64.8775 11.6902 65.1503 11.7834C65.7157 11.9924 66.2059 12.1993 66.6261 12.4038C67.0441 12.6129 67.3911 12.847 67.6704 13.122C67.9475 13.3925 68.1541 13.7107 68.2903 14.0789C68.4264 14.4425 68.4947 14.8903 68.4947 15.4108C68.4947 16.4267 68.1381 17.2177 67.4275 17.7745C66.7168 18.3359 65.6431 18.6178 64.2101 18.6178C63.7291 18.6178 63.295 18.5859 62.9069 18.5291C62.5187 18.4723 62.176 18.4041 61.8786 18.32C61.5806 18.2314 61.3244 18.1427 61.1087 18.0495C60.8951 17.9563 60.7136 17.8677 60.5684 17.7836L61.2587 15.8358C61.5833 16.0131 61.9827 16.1744 62.4595 16.3154C62.9362 16.4563 63.5198 16.529 64.2101 16.529L64.2032 16.5268Z" fill="black"/>
<path d="M79.2753 7.50586V9.59915H75.9939V18.395H73.5465V9.59915H70.2656V7.50586H79.2753Z" fill="black"/>
<path d="M81.9941 18.395H84.4415V7.50586H81.9941V18.395Z" fill="black"/>
<path d="M95.4027 18.395C94.7012 17.1449 93.9425 15.9176 93.1277 14.6994C92.3104 13.4857 91.4427 12.3424 90.5234 11.2583V18.395H88.1074V7.50586H90.101C90.4459 7.8536 90.8277 8.27636 91.2473 8.78092C91.6654 9.28094 92.092 9.81731 92.526 10.3901C92.9596 10.9628 93.391 11.5515 93.8202 12.1652C94.249 12.7788 94.651 13.3675 95.0279 13.9357V7.50815H97.462V18.3972H95.4049L95.4027 18.395Z" fill="black"/>
<path d="M106.427 9.39034C105.287 9.39034 104.462 9.70855 103.953 10.3427C103.445 10.9768 103.193 11.8427 103.193 12.9405C103.193 13.4769 103.255 13.961 103.382 14.3974C103.507 14.8292 103.695 15.2042 103.947 15.5156C104.199 15.8338 104.512 16.077 104.889 16.2497C105.266 16.4225 105.704 16.5043 106.206 16.5043C106.478 16.5043 106.712 16.4997 106.905 16.4884C107.098 16.4839 107.269 16.4566 107.416 16.427V12.6428H109.864V18.0294C109.571 18.143 109.101 18.268 108.452 18.3998C107.802 18.5294 107.003 18.5976 106.05 18.5976C105.232 18.5976 104.492 18.4726 103.829 18.218C103.163 17.968 102.596 17.6044 102.126 17.1202C101.656 16.6407 101.29 16.0474 101.036 15.3452C100.779 14.6429 100.652 13.8406 100.652 12.9405C100.652 12.0405 100.793 11.2223 101.077 10.5245C101.359 9.82221 101.747 9.22899 102.24 8.73805C102.73 8.25396 103.309 7.88349 103.974 7.62893C104.637 7.37892 105.348 7.25391 106.099 7.25391C106.612 7.25391 107.076 7.28571 107.489 7.3539C107.902 7.42665 108.256 7.50393 108.556 7.59253C108.854 7.68119 109.101 7.76987 109.294 7.86756C109.487 7.96077 109.626 8.0335 109.71 8.08576L109.003 10.0472C108.667 9.86994 108.283 9.71308 107.85 9.58354C107.416 9.45399 106.942 9.38579 106.429 9.38579L106.427 9.39034Z" fill="black"/>
<path d="M113.289 18.395V7.50586H120.634V9.56731H115.736V11.7015H120.085V13.7107H115.736V16.3335H120.995V18.395H113.289Z" fill="black"/>
<path d="M127.28 9.4696C127.102 9.4696 126.944 9.47415 126.801 9.48549C126.66 9.49686 126.526 9.51049 126.401 9.51733V12.4743H127.091C128.01 12.4743 128.671 12.3606 129.069 12.1265C129.466 11.897 129.666 11.506 129.666 10.9492C129.666 10.3924 129.464 10.0378 129.062 9.80823C128.66 9.58554 128.065 9.4696 127.28 9.4696ZM127.139 7.38086C128.771 7.38086 130.02 7.67181 130.89 8.2559C131.757 8.8332 132.193 9.74004 132.193 10.9628C132.193 11.7288 132.018 12.347 131.666 12.8265C131.316 13.2993 130.81 13.6743 130.152 13.9516C130.372 14.2221 130.601 14.5357 130.842 14.8834C131.083 15.2381 131.321 15.6017 131.557 15.9812C131.793 16.3653 132.021 16.7631 132.241 17.179C132.461 17.5904 132.663 17.9973 132.851 18.3972H130.113C129.913 18.0381 129.711 17.679 129.507 17.3086C129.302 16.9449 129.092 16.5903 128.876 16.2403C128.66 15.8971 128.449 15.5699 128.238 15.2608C128.026 14.9494 127.816 14.6675 127.606 14.4175H126.399V18.395H123.951V7.66271C124.485 7.55813 125.036 7.4854 125.606 7.44451C126.176 7.40363 126.687 7.38315 127.136 7.38315L127.139 7.38086Z" fill="black"/>
<path d="M142.656 7.51367H141.945V18.4426H142.656V7.51367Z" fill="black"/>
<path d="M20.9676 5.13989C20.2886 5.13989 19.6237 4.86509 19.0538 4.35093L17.0565 2.54432C16.4981 2.03992 15.6479 2.03992 15.0895 2.54432L13.0923 4.35093C12.5223 4.86686 11.8574 5.13989 11.1784 5.13989H3.24805V8.44553H11.1793C11.8583 8.44553 12.5231 8.17072 13.0931 7.65657L15.0904 5.84995C15.6488 5.34555 16.499 5.34555 17.0574 5.84995L19.0546 7.65657C19.6246 8.17249 20.2895 8.44553 20.9685 8.44553H22.7512V5.13989H20.9676Z" fill="black"/>
<path d="M20.9676 11.7493C20.2886 11.7493 19.6237 11.4745 19.0538 10.9603L17.0565 9.15368C16.4981 8.64929 15.6479 8.64929 15.0895 9.15368L13.0923 10.9603C12.5223 11.4763 11.8574 11.7493 11.1784 11.7493H3.24805V15.0549H11.1793C11.8583 15.0549 12.5231 14.7801 13.0931 14.266L15.0904 12.4593C15.6488 11.9549 16.499 11.9549 17.0574 12.4593L19.0546 14.266C19.6246 14.7819 20.2895 15.0549 20.9685 15.0549H22.7512V11.7493H20.9676Z" fill="black"/>
<path d="M19.0538 17.5716C19.6237 18.0858 20.2886 18.3606 20.9676 18.3606H22.7512V21.6662H20.9685C20.2895 21.6662 19.6246 21.3932 19.0546 20.8773L17.0574 19.0706C16.499 18.5662 15.6488 18.5662 15.0904 19.0706L13.0931 20.8773C12.5231 21.3914 11.8583 21.6662 11.1793 21.6662H3.24805V18.3606H11.1784C11.8574 18.3606 12.5223 18.0875 13.0923 17.5716L15.0895 15.765C15.6479 15.2606 16.4981 15.2606 17.0565 15.765L19.0538 17.5716Z" fill="black"/>
</svg>
